<?xml version="1.0" encoding="UTF-8"?>
<svg version="1.1" viewBox="0 0 900 900" width="1280" height="1280" xmlns="http://www.w3.org/2000/svg">
<path transform="translate(250,126)" d="m0 0h30l25 5 16 5 14 8 15 10 10 7 14 11 12 11 8 7 12 13 11 14 11 16 8 13 9 16 3 6v2l6-2 11-19 20-30 10-13 12-14 9-10 12-12 11-9 13-10 17-10 14-6 29-8 5-1h33l17 3 25 8 19 10 14 9 11 9 10 9 8 7 7 8 12 14 14 21 9 16 6 14 5 16 4 16 4 28 3 32v12l-4 37-4 19-9 29-6 17-7 16h-2l3-12 4-17 3-10 3-18 2-21v-21l-2-23-5-25-8-25-9-19-12-21-10-14-10-13-9-11-3-3v-2l-4-2-11-10-12-9-14-8-15-7-21-5-15-2h-12l-25 4-16 5-20 10-12 8-16 12-11 10-8 7-12 14-13 16-16 24-11 19-7 14-4-4-8-16-10-19-16-22-11-13-13-14-8-7-14-13-10-8-15-10-17-9-16-5-18-3h-19l-19 3-17 6-19 10-14 10-14 12-8 7h-2l-2 4-10 12-7 10-6 11-6 12-10 24-9 28-4 14-3 35v20l3 35 5 28 9 30 10 24 12 24 16 26 12 18 18 24 4 1 3-13 3-16 4-8 7-3 52-2 5-1 4-15 2-19 2-35 3-7 5-6 13-8 4-1h15l7 3 5 5 4 9 2 17v9l-3 26-2 8v8l4 4 8 1h2l2-11-1-6-4-5-1-6 5-13 6-15 2-12 3-21 6-12 5-1 4 2h4l6-12 6-17 6-9 6-5 15-1h42l17 1 7 11 10 20 6 10 14 27 12 22 2 3 4-1 7-18 9-29 7-37 4-9 6-7 11-6 7-2 13 3 9 5 6 7 3 8v9l-6 36-1 10 9 3 25 11 11 5 14 7 1 1v8l5 5 14 8 3 6 3 7 7 8 16 16 7 8 8 8 8 11 4 6 1 7-2 2-10 2-2 4v39l2 16 2 4 9 4 7 10 3 7v7l-4 8-8 6-12 3-10-3-6-4-5-8-2-10 3-7 5-5 8-6 1-9-3-17-1-20-1-9-4-3-12-2-10 1-7 3-5 5-8 13-8 16-7 11-6 7-1 5 7 9 2 6v7l-5 10-8 6-8 2-8-1-7-3-5-4-2-4v-11l5-13 4-5 11-4 9-12 19-28 7-10 5-8 2-7 1-20v-30l-1-18-4-5-8-5-16-8-11-5-21-9-11-5h-3l-3 13-1 9v22l5 23 5 15 7 31v14l-7 23-4 9-8 16-8 18-8 16-5 3-4-1-3-7 1-10 6-28 6-26 3-24-8-20-11-26-4-4-3 33-2 23-6 16-4 1v17l1 11v19l-2 24-2 5-3-2-1-4-2-32-2-4-4 2-10 17-9 17-5 3-6-1-2-1v-7l9-33 8-25 7-20 1-5v-16l-2-27 1-30-3-4h-10l-1-5 2-4-1-5-10-16-20-26-2 1-1 6 4 17 9 43 7 35 2 8v6l-1 1-19 2-1 2-1 15v47l2 26v8l-2 8-2 1h-10l-3-4-9-52-8-43-3-8-7-1-3 3-4 28-6 23-1 8-1 22-2 15-3 6-6 4h-8l-2-2-2-20-1-15v-14l4-49-1-7-3-3-7-1-5 2 2 21v15l-2 14-5 16-9 14-5 5-9 7-14 7-7 2-17 3h-7l-23-4-17-9-16-12-9-10-6-10-5-11-3-15v-8l4-17 8-16 1-4-6-2h-9l-3 2-3 45-3 18-5 19-5 10-7 3-8-2-5-6-1-3v-11l5-14 3-24-3-5-7-7-8-7-17-17-7-8-9-10-20-26-13-19-10-16-15-29-8-20-6-18-6-23-6-31-2-15-1-19v-14l2-30 5-32 6-22 6-17 12-24 12-18 11-13 7-8 6-6h2v-2l11-9 15-11 15-9 17-8 22-7zm205 324-4 4v6l5 6 5 4 5-2v-2l4-2 3-4v-6l-4-4zm23 17-8 7v2l-21 1-10 10-1 5v6l1 2h11l6-3 16-4 15-15v-6l-6-5zm-59 21-15 20-7 10-9 19-4 27-1 6 3 7 7 7 5 6 5 1 4-10 11-44 6-37v-8l-2-4zm294 75-2 8-1 15 1 8 4 2 7 1h13l8-2-2-5-9-11-14-15zm-385 8-14 3-14 6-15 14-9 12-4 11-2 10v10l5 21 7 11 8 10 14 10 12 5 9 3 7 1h9l10-2 12-4 11-6 10-9 8-11 5-14 3-13-1-8-4-18-5-10-10-14-12-9-16-8-6-1z" fill="#ffffff"/>
<path transform="translate(604,403)" d="m0 0 15 3 9 5 6 7 3 8v9l-6 36-1 10 9 3 25 11 11 5 14 7 1 1v8l5 5 14 8 3 6 3 7 7 8 16 16 7 8 8 8 8 11 4 6 1 7-2 2-10 2-2 4v39l2 16 2 4 9 4 7 10 3 7v7l-4 8-8 6-12 3-10-3-6-4-5-8-2-10 3-7 5-5 8-6 1-9-3-17-1-20-1-9-4-3-12-2-10 1-7 3-5 5-8 13-8 16-7 11-6 7-1 5 7 9 2 6v7l-5 10-8 6-8 2-8-1-7-3-5-4-2-4v-11l5-13 4-5 11-4 9-12 19-28 7-10 5-8 2-7 1-20v-30l-1-18-4-5-8-5-16-8-11-5-21-9-11-5h-3l-3 13-1 9v22l5 23 5 15 7 31v14l-7 23-4 9-8 16-8 18-8 16-5 3-4-1-3-7 1-10 6-28 6-26 3-24-8-20-11-26-4-4-3 33-2 23-6 16-4 1v17l1 11v19l-2 24-2 5-3-2-1-4-2-32-2-4-4 2-10 17-9 17-5 3-6-1-2-1v-7l9-33 8-25 7-20 1-5v-16l-2-27 1-30-3-4h-10l-1-5 2-4-1-5-10-16-20-26-2 1-1 6 4 17 9 43 7 35 2 8v6l-1 1-19 2-1 2-1 15v47l2 26v8l-2 8-2 1h-10l-3-4-9-52-8-43-3-8-7-1-3 3-4 28-6 23-1 8-1 22-2 15-3 6-6 4h-8l-2-2-2-20-1-15v-14l4-49-1-7-3-3-7-1-5 2-2 3-7-2-1-8 2-8 3-1 5-15 8-35 3-16 4-24v-8l-1-3-3-1-2 4-13 17-7 11-8 17-1 9-7 1-2 1h-6l-6-10 1-7 10-25 2-12 3-21 6-12 5-1 4 2h4l6-12 6-17 6-9 6-5 15-1h42l17 1 7 11 10 20 6 10 14 27 12 22 2 3 4-1 7-18 9-29 7-37 4-9 6-7 11-6zm-149 47-4 4v6l5 6 5 4 5-2v-2l4-2 3-4v-6l-4-4zm23 17-8 7v2l-21 1-10 10-1 5v6l1 2h11l6-3 16-4 15-15v-6l-6-5zm235 96-2 8-1 15 1 8 4 2 7 1h13l8-2-2-5-9-11-14-15z" fill="#ffffff"/>
<path transform="translate(604,403)" d="m0 0 15 3 9 5 6 7 3 8v9l-6 36-1 10 9 3 25 11 11 5 14 7 1 1v8l5 5 14 8 3 6 3 7 7 8 16 16 7 8 8 8 8 11 4 6 1 7-2 2-10 2-2 4v39l2 16 2 4 9 4 7 10 3 7v7l-4 8-8 6-12 3-10-3-6-4-5-8-2-10 3-7 5-5 8-6 1-9-3-17-1-20-1-9-4-3-12-2-10 1-7 3-5 5-8 13-8 16-7 11-6 7-1 5 7 9 2 6v7l-5 10-8 6-8 2-8-1-7-3-5-4-2-4v-11l5-13 4-5 11-4 9-12 19-28 7-10 5-8 2-7 1-20v-30l-1-18-4-5-8-5-16-8-11-5-21-9-11-5h-3l-3 13-1 9v22l5 23 5 15 7 31v14l-7 23-4 9-8 16-8 18-8 16-5 3-4-1-3-7 1-10 6-28 6-26 3-24-8-20-11-26-4-4-3 33-2 23-6 16h-2l1-23v-32l-1-20-3-20-3-7-10-19-2-3 1-4 7-18 9-29 7-37 4-9 6-7 11-6zm109 160-2 8-1 15 1 8 4 2 7 1h13l8-2-2-5-9-11-14-15z" fill="#ffffff"/>
<path transform="translate(553,547)" d="m0 0h5l2 7 1 49v56l-2 12v2l-5 5-6 10-12 22-5 3-6-1-2-1v-7l9-33 8-25 7-20 1-5v-16l-2-27 1-26 1-4z" fill="#ffffff"/>
<path transform="translate(336,406)" d="m0 0 15 1 8 3 6 4 6 12 1 10-2 9-5 9-7 5-7 2h-10l-10-3-7-5-6-10-2-5v-10l4-9 7-8z" fill="#ffffff"/>
<path transform="translate(458,351)" d="m0 0 10 1 13 5 6 7 3 10-1 11-5 10-9 7-10 3h-7l-10-3-8-5-4-5-3-8v-7l4-11 8-9 9-5z" fill="#ffffff"/>
<path transform="translate(619,347)" d="m0 0h9l13 4 7 5 4 10v11l-3 10-7 8-8 3h-12l-8-3-7-5-4-6-2-8 1-9 5-10 10-9z" fill="#ffffff"/>
<path transform="translate(335,589)" d="m0 0 15 2 10 5 9 8 7 11 3 8 1 13-3 14-5 9-5 7-14 9-15 4-9-1-13-4-10-6-5-4-7-11-4-16 1-7 3-11 5-9 9-11 7-5 12-4zm-3 7-11 3-9 6-7 8-6 12-1 4v11l4 11 7 10 11 7 9 3 10 1 12-3 9-6 7-9 4-10 1-4v-14l-3-11-7-9-14-8-10-2z" fill="#ffffff"/>
<path transform="translate(202,698)" d="m0 0 14 2 4 1 14-1 15-2 8 3v7l-4 3-17 1-39-3-2-2v-5l3-3z" fill="#ffffff"/>
<path transform="translate(482,474)" d="m0 0h2v3l-8 7-7 6-20 6-7 1-1-1v-6l5-6h2v-2l3-2h17l1 3-13 1-1 2 16-1z" fill="#ffffff"/>
<path transform="translate(391,460)" d="m0 0 5 1 3 2-1 5-4 8-7 10-3 6-2 9-3 2 1-9 3-21 6-12z" fill="#ffffff"/>
<path transform="translate(457,453)" d="m0 0 6 1 4-1 3 2-1 5-7 6-7-6v-5z" fill="#ffffff"/>
<path transform="translate(473,476)" d="m0 0 2 1-2 1z" fill="#ffffff"/>
<path transform="translate(478,471)" d="m0 0 2 1-2 1z" fill="#ffffff"/>
<path transform="translate(475,475)" d="m0 0" fill="#ffffff"/>
<path transform="translate(476,474)" d="m0 0" fill="#ffffff"/>
<path transform="translate(477,473)" d="m0 0" fill="#ffffff"/>
</svg>
